<svg id="visual" viewBox="0 0 960 540" width="960" height="540" xmlns="http://www.w3.org/2000/svg" xmlns:xlink="http://www.w3.org/1999/xlink" version="1.1"><rect x="0" y="0" width="960" height="540" fill="#bde1ff"></rect><path d="M327 0L327.2 30C327.3 60 327.7 120 321.5 180C315.3 240 302.7 300 304.7 360C306.7 420 323.3 480 331.7 510L340 540L0 540L0 510C0 480 0 420 0 360C0 300 0 240 0 180C0 120 0 60 0 30L0 0Z" fill="#bde1ff"></path><path d="M341 0L335.5 30C330 60 319 120 317.8 180C316.7 240 325.3 300 326.2 360C327 420 320 480 316.5 510L313 540L0 540L0 510C0 480 0 420 0 360C0 300 0 240 0 180C0 120 0 60 0 30L0 0Z" fill="#a2d2fd"></path><path d="M292 0L270.7 30C249.3 60 206.7 120 201.5 180C196.3 240 228.7 300 231.5 360C234.3 420 207.7 480 194.3 510L181 540L0 540L0 510C0 480 0 420 0 360C0 300 0 240 0 180C0 120 0 60 0 30L0 0Z" fill="#87c4fb"></path><path d="M126 0L140.3 30C154.7 60 183.3 120 189.5 180C195.7 240 179.3 300 165.8 360C152.3 420 141.7 480 136.3 510L131 540L0 540L0 510C0 480 0 420 0 360C0 300 0 240 0 180C0 120 0 60 0 30L0 0Z" fill="#6bb4f9"></path><path d="M113 0L109.3 30C105.7 60 98.3 120 104.7 180C111 240 131 300 143.5 360C156 420 161 480 163.5 510L166 540L0 540L0 510C0 480 0 420 0 360C0 300 0 240 0 180C0 120 0 60 0 30L0 0Z" fill="#4ca5f6"></path><path d="M88 0L81 30C74 60 60 120 51 180C42 240 38 300 47 360C56 420 78 480 89 510L100 540L0 540L0 510C0 480 0 420 0 360C0 300 0 240 0 180C0 120 0 60 0 30L0 0Z" fill="#2196f3"></path></svg>