<svg id="visual" viewBox="0 0 960 540" width="960" height="540" xmlns="http://www.w3.org/2000/svg" xmlns:xlink="http://www.w3.org/1999/xlink" version="1.1"><rect x="0" y="0" width="960" height="540" fill="#bde1ff"></rect><path d="M372 0L378.3 30C384.7 60 397.3 120 383.2 180C369 240 328 300 303.7 360C279.3 420 271.7 480 267.8 510L264 540L0 540L0 510C0 480 0 420 0 360C0 300 0 240 0 180C0 120 0 60 0 30L0 0Z" fill="#bde1ff"></path><path d="M325 0L305.3 30C285.7 60 246.3 120 246.5 180C246.7 240 286.3 300 299.7 360C313 420 300 480 293.5 510L287 540L0 540L0 510C0 480 0 420 0 360C0 300 0 240 0 180C0 120 0 60 0 30L0 0Z" fill="#a2d2fd"></path><path d="M211 0L205 30C199 60 187 120 198.8 180C210.7 240 246.3 300 261 360C275.7 420 269.3 480 266.2 510L263 540L0 540L0 510C0 480 0 420 0 360C0 300 0 240 0 180C0 120 0 60 0 30L0 0Z" fill="#87c4fb"></path><path d="M157 0L165.5 30C174 60 191 120 198.2 180C205.3 240 202.7 300 205 360C207.3 420 214.7 480 218.3 510L222 540L0 540L0 510C0 480 0 420 0 360C0 300 0 240 0 180C0 120 0 60 0 30L0 0Z" fill="#6bb4f9"></path><path d="M146 0L148.3 30C150.7 60 155.3 120 154.8 180C154.3 240 148.7 300 148.2 360C147.7 420 152.3 480 154.7 510L157 540L0 540L0 510C0 480 0 420 0 360C0 300 0 240 0 180C0 120 0 60 0 30L0 0Z" fill="#4ca5f6"></path><path d="M45 0L47.2 30C49.3 60 53.7 120 52.2 180C50.7 240 43.3 300 49.5 360C55.7 420 75.3 480 85.2 510L95 540L0 540L0 510C0 480 0 420 0 360C0 300 0 240 0 180C0 120 0 60 0 30L0 0Z" fill="#2196f3"></path></svg>