<svg id="visual" viewBox="0 0 960 540" width="960" height="540" xmlns="http://www.w3.org/2000/svg" xmlns:xlink="http://www.w3.org/1999/xlink" version="1.1"><rect x="0" y="0" width="960" height="540" fill="#9cd1ff"></rect><path d="M455 0L465.5 30C476 60 497 120 504.5 180C512 240 506 300 467.8 360C429.7 420 359.3 480 324.2 510L289 540L0 540L0 510C0 480 0 420 0 360C0 300 0 240 0 180C0 120 0 60 0 30L0 0Z" fill="#9cd1ff"></path><path d="M367 0L380.5 30C394 60 421 120 429.3 180C437.7 240 427.3 300 397.5 360C367.7 420 318.3 480 293.7 510L269 540L0 540L0 510C0 480 0 420 0 360C0 300 0 240 0 180C0 120 0 60 0 30L0 0Z" fill="#87c5fd"></path><path d="M300 0L311.3 30C322.7 60 345.3 120 346.3 180C347.3 240 326.7 300 322.2 360C317.7 420 329.3 480 335.2 510L341 540L0 540L0 510C0 480 0 420 0 360C0 300 0 240 0 180C0 120 0 60 0 30L0 0Z" fill="#72bafb"></path><path d="M168 0L183.3 30C198.7 60 229.3 120 249 180C268.7 240 277.3 300 284.2 360C291 420 296 480 298.5 510L301 540L0 540L0 510C0 480 0 420 0 360C0 300 0 240 0 180C0 120 0 60 0 30L0 0Z" fill="#5caef9"></path><path d="M151 0L158.5 30C166 60 181 120 176.3 180C171.7 240 147.3 300 131.8 360C116.3 420 109.7 480 106.3 510L103 540L0 540L0 510C0 480 0 420 0 360C0 300 0 240 0 180C0 120 0 60 0 30L0 0Z" fill="#43a2f6"></path><path d="M123 0L126.2 30C129.3 60 135.7 120 129.2 180C122.7 240 103.3 300 83.3 360C63.3 420 42.7 480 32.3 510L22 540L0 540L0 510C0 480 0 420 0 360C0 300 0 240 0 180C0 120 0 60 0 30L0 0Z" fill="#2196f3"></path></svg>