<svg id="visual" viewBox="0 0 900 600" width="900" height="600" xmlns="http://www.w3.org/2000/svg" xmlns:xlink="http://www.w3.org/1999/xlink" version="1.1"><rect x="0" y="0" width="900" height="600" fill="#9cd1ff"></rect><path d="M334 0L341.7 25C349.3 50 364.7 100 359.5 150C354.3 200 328.7 250 321.2 300C313.7 350 324.3 400 332.7 450C341 500 347 550 350 575L353 600L0 600L0 575C0 550 0 500 0 450C0 400 0 350 0 300C0 250 0 200 0 150C0 100 0 50 0 25L0 0Z" fill="#9cd1ff"></path><path d="M365 0L368 25C371 50 377 100 372.8 150C368.7 200 354.3 250 330.8 300C307.3 350 274.7 400 260.8 450C247 500 252 550 254.5 575L257 600L0 600L0 575C0 550 0 500 0 450C0 400 0 350 0 300C0 250 0 200 0 150C0 100 0 50 0 25L0 0Z" fill="#87c5fd"></path><path d="M361 0L355 25C349 50 337 100 311.3 150C285.7 200 246.3 250 245.8 300C245.3 350 283.7 400 300.2 450C316.7 500 311.3 550 308.7 575L306 600L0 600L0 575C0 550 0 500 0 450C0 400 0 350 0 300C0 250 0 200 0 150C0 100 0 50 0 25L0 0Z" fill="#72bafb"></path><path d="M208 0L203.2 25C198.3 50 188.7 100 197.3 150C206 200 233 250 244 300C255 350 250 400 229.3 450C208.7 500 172.3 550 154.2 575L136 600L0 600L0 575C0 550 0 500 0 450C0 400 0 350 0 300C0 250 0 200 0 150C0 100 0 50 0 25L0 0Z" fill="#5caef9"></path><path d="M143 0L132.7 25C122.3 50 101.7 100 104.7 150C107.7 200 134.3 250 139.3 300C144.3 350 127.7 400 123.2 450C118.7 500 126.3 550 130.2 575L134 600L0 600L0 575C0 550 0 500 0 450C0 400 0 350 0 300C0 250 0 200 0 150C0 100 0 50 0 25L0 0Z" fill="#43a2f6"></path><path d="M65 0L64.2 25C63.3 50 61.7 100 61.2 150C60.7 200 61.3 250 73.7 300C86 350 110 400 113.5 450C117 500 100 550 91.5 575L83 600L0 600L0 575C0 550 0 500 0 450C0 400 0 350 0 300C0 250 0 200 0 150C0 100 0 50 0 25L0 0Z" fill="#2196f3"></path></svg>